<?xml version="1.0" encoding="iso-8859-1"?>
<!-- Generator: Adobe Illustrator 19.0.0, SVG Export Plug-In . SVG Version: 6.00 Build 0)  -->
<svg version="1.1" id="Layer_1" xmlns="http://www.w3.org/2000/svg" xmlns:xlink="http://www.w3.org/1999/xlink" x="0px" y="0px"
	 viewBox="0 0 512 512" style="enable-background:new 0 0 512 512;" xml:space="preserve">
<g>
	<g>
		<g>
			<path d="M486.4,281.6h17.067c4.71,0,8.533-3.814,8.533-8.533V204.8c0-4.719-3.823-8.533-8.533-8.533H486.4V179.2h8.533
				c4.71,0,8.533-3.814,8.533-8.533v-51.2c0-4.719-3.823-8.533-8.533-8.533H375.467c-4.71,0-8.533,3.814-8.533,8.533v51.2
				c0,4.719,3.823,8.533,8.533,8.533H384v17.067h-17.067c-4.71,0-8.533,3.814-8.533,8.533v8.533h-51.234
				c-0.111-6.204-3.499-11.58-8.499-14.566v-30.601c5.086-3.038,8.533-8.542,8.533-14.882v-50.568c0-6.34-3.447-11.844-8.533-14.882
				v-28.1c0-4.719-3.823-8.533-8.533-8.533H230.4c-4.71,0-8.533,3.814-8.533,8.533V87.68c-1.468,0.836-2.85,1.809-4.019,3.055
				c-3.115,3.319-4.676,7.629-4.497,11.665H153.6v-8.533c0-4.719-3.823-8.533-8.533-8.533H128V68.267h8.533
				c4.71,0,8.533-3.814,8.533-8.533v-51.2c0-4.719-3.823-8.533-8.533-8.533H17.067c-4.71,0-8.533,3.814-8.533,8.533v51.2
				c0,4.719,3.823,8.533,8.533,8.533H25.6v17.067H8.533C3.823,85.333,0,89.148,0,93.867v68.267c0,4.719,3.823,8.533,8.533,8.533
				H25.6v17.067H128v-17.067h17.067c4.71,0,8.533-3.814,8.533-8.533V153.6h59.784c-0.06,4.352,1.468,8.474,4.463,11.665
				c1.169,1.246,2.551,2.219,4.019,3.055v30.293c-1.468,0.836-2.85,1.809-4.019,3.055c-3.2,3.405-4.796,7.859-4.514,11.981
				l0.017,50.022c-0.299,4.668,1.297,9.122,4.497,12.527c1.084,1.161,2.364,2.074,3.703,2.884v164.651H34.133
				C15.309,443.733,0,459.042,0,477.867S15.309,512,34.133,512h179.2c2.27,0,4.437-0.896,6.042-2.5l14.558-14.566h52.668
				l14.558,14.566c1.604,1.604,3.772,2.5,6.042,2.5h170.667C496.691,512,512,496.691,512,477.867s-15.309-34.133-34.133-34.133
				H298.351V279.27c5.171-2.944,8.704-8.405,8.815-14.737H358.4v8.533c0,4.719,3.823,8.533,8.533,8.533H384v51.2h102.4V281.6z
				 M25.6,51.2V17.067H128V51.2h-8.533H34.133H25.6z M136.533,110.933v34.133v8.533h-17.067v-51.2h17.067V110.933z M392.533,264.533
				h-17.067V256v-34.133v-8.533h17.067V264.533z M384,162.133V128h102.4v34.133h-8.533h-85.333H384z"/>
			<path d="M384,375.467c0,28.237,22.963,51.2,51.2,51.2c28.237,0,51.2-22.963,51.2-51.2v-25.6H384V375.467z"/>
			<path d="M76.8,315.733c28.237,0,51.2-22.963,51.2-51.2V204.8H25.6v59.733C25.6,292.77,48.563,315.733,76.8,315.733z"/>
		</g>
	</g>
</g>
<g>
</g>
<g>
</g>
<g>
</g>
<g>
</g>
<g>
</g>
<g>
</g>
<g>
</g>
<g>
</g>
<g>
</g>
<g>
</g>
<g>
</g>
<g>
</g>
<g>
</g>
<g>
</g>
<g>
</g>
</svg>
