<?xml version="1.0" encoding="iso-8859-1"?>
<!-- Generator: Adobe Illustrator 19.0.0, SVG Export Plug-In . SVG Version: 6.00 Build 0)  -->
<svg version="1.1" id="Capa_1" xmlns="http://www.w3.org/2000/svg" xmlns:xlink="http://www.w3.org/1999/xlink" x="0px" y="0px"
	 viewBox="0 0 489.5 489.5" style="enable-background:new 0 0 489.5 489.5;" xml:space="preserve">
<g>
	<path d="M0,0v489.5h489.5V0H0z M47.4,47.4h394.7v170.1h-90.5c-3.5,0-7,1.9-8.5,5.1l-11.7,20.2L274.2,72.2c-2.8-8.5-16.1-9.7-19,1.6
		l-40.4,217.5l-40.4-136c-1.9-6.9-12.8-11-18.6-1.2l-28.7,63.3H47.4V47.4z M95.1,451.7c-15.5,0-28-12.4-28-28c0-15.5,12.4-28,28-28
		c15.5,0,28,12.4,28,28S110.7,451.7,95.1,451.7z M392.7,451.7c-15.5,0-28-12.4-28-28c0-15.5,12.4-28,28-28c15.5,0,28,12.4,28,28
		S408.2,451.7,392.7,451.7z M442.4,362h-395V237.3h85.8c3.9,0,7.4-2.3,8.9-5.8l20.6-45.1l44.7,150.3c3,10.1,17.5,9.3,19.4-1
		L267.6,115l52.1,154.6c3.8,9.7,15.3,7.3,18.3,1.6l19.8-34.2h84.7v125H442.4z"/>
</g>
<g>
</g>
<g>
</g>
<g>
</g>
<g>
</g>
<g>
</g>
<g>
</g>
<g>
</g>
<g>
</g>
<g>
</g>
<g>
</g>
<g>
</g>
<g>
</g>
<g>
</g>
<g>
</g>
<g>
</g>
</svg>
